<svg xmlns="http://www.w3.org/2000/svg" width="2402" height="2402" viewBox="0 0 2402 2402" version="1.1">
	<path d="M 1155.500 118.674 C 921.107 128.136, 702.974 209.146, 520.401 354.539 C 305.680 525.533, 162.489 775.361, 124.084 1046 C 115.939 1103.398, 113.579 1138.254, 113.591 1201 C 113.601 1252.577, 114.663 1274.925, 119.055 1316 C 141.070 1521.881, 220.062 1714.011, 349.539 1876.599 C 454.835 2008.822, 594.450 2117.620, 748.500 2187.501 C 937.472 2273.222, 1147.868 2302.677, 1355 2272.409 C 1635.719 2231.388, 1891.177 2079.079, 2062.641 1850.500 C 2185.669 1686.491, 2258.861 1493.378, 2275.455 1289 C 2278.878 1246.837, 2278.987 1227.949, 2278.993 672.250 L 2279 118 2070.624 118 L 1862.248 118 1861.605 412.750 C 1860.838 764.753, 1859.179 1186.350, 1858.504 1201 C 1855.905 1257.346, 1854.922 1269.821, 1850.900 1297.500 C 1834.246 1412.123, 1786.508 1522, 1713.679 1613.341 C 1627.765 1721.094, 1509.984 1799.757, 1378.108 1837.462 C 1260.340 1871.133, 1133.663 1871.305, 1016.500 1837.952 C 923.224 1811.399, 838.840 1765.691, 763 1700.640 C 749.447 1689.014, 707.986 1647.553, 696.360 1634 C 568.673 1485.137, 513.255 1296.138, 541.100 1104.500 C 557.730 990.046, 605.392 880.232, 677.951 789.192 C 729.962 723.934, 791.005 671.200, 864.500 628.035 C 881.632 617.973, 923.610 597.187, 942.235 589.544 C 993.169 568.641, 1044.152 554.490, 1097 546.586 C 1121.714 542.890, 1140.654 541.122, 1169.750 539.796 L 1196 538.599 1196 328.299 L 1196 118 1179.250 118.196 C 1170.037 118.304, 1159.350 118.519, 1155.500 118.674" stroke="none" fill="black" fill-rule="evenodd"/>
</svg>